<svg width="262" height="80" viewBox="0 0 262 80" xmlns="http://www.w3.org/2000/svg" class="logo">
                    {{-- 9-bar group --}}
                    <rect x="8" y="64" width="8" height="8" rx="4" fill="#000000" />
                    <rect x="20" y="58" width="8" height="14" rx="4" fill="#000000" />
                    <rect x="32" y="50" width="8" height="22" rx="4" fill="#000000" />
                    <rect x="44" y="40" width="8" height="32" rx="4" fill="#000000" />
                    <rect x="56" y="32" width="8" height="40" rx="4" fill="#000000" />
                    <rect x="68" y="40" width="8" height="32" rx="4" fill="#000000" />
                    <rect x="80" y="50" width="8" height="22" rx="4" fill="#000000" />
                    <rect x="92" y="58" width="8" height="14" rx="4" fill="#000000" />
                    <rect x="104" y="64" width="8" height="8" rx="4" fill="#000000" />

                    {{-- 11-bar group --}}
                    <rect x="134" y="66" width="8" height="6" rx="4" fill="#000000" />
                    <rect x="146" y="61" width="8" height="11" rx="4" fill="#000000" />
                    <rect x="158" y="54" width="8" height="18" rx="4" fill="#000000" />
                    <rect x="170" y="44" width="8" height="28" rx="4" fill="#000000" />
                    <rect x="182" y="36" width="8" height="36" rx="4" fill="#000000" />
                    <rect x="194" y="28" width="8" height="44" rx="4" fill="#000000" />
                    <rect x="206" y="36" width="8" height="36" rx="4" fill="#000000" />
                    <rect x="218" y="44" width="8" height="28" rx="4" fill="#000000" />
                    <rect x="230" y="54" width="8" height="18" rx="4" fill="#000000" />
                    <rect x="242" y="61" width="8" height="11" rx="4" fill="#000000" />
                    <rect x="254" y="66" width="8" height="6" rx="4" fill="#000000" />
                </svg>